<?xml version="1.0" encoding="utf-8"?>
<!-- Generator: Adobe Illustrator 19.2.1, SVG Export Plug-In . SVG Version: 6.00 Build 0)  -->
<svg version="1.1" id="Layer_1" xmlns="http://www.w3.org/2000/svg" xmlns:xlink="http://www.w3.org/1999/xlink" x="0px" y="0px"
	 width="841.9px" height="595.3px" viewBox="0 0 841.9 595.3" enable-background="new 0 0 841.9 595.3" xml:space="preserve">
<g>
	<g>
		<path fill="#1C75BC" d="M743.7,136.5l-11.8-11.8c-9.6-9.6-25.1-9.6-34.6,0c-9.6,9.6-9.6,25.1,0,34.6l11.8,11.8
			c4.8,4.8,11,7.2,17.3,7.2s12.5-2.4,17.3-7.2C753.2,161.6,753.2,146,743.7,136.5z M714.5,122.5c4.2,0,8.4,1.4,11.9,4.1l-11.9,11.9
			l-11.9-11.9C706.1,123.9,710.3,122.5,714.5,122.5z M699.1,130.1L711,142l-11.9,11.9C693.7,146.9,693.7,137.1,699.1,130.1z
			 M740.1,167.6c-7.6,7.6-20,7.6-27.6,0l-10-10l27.6-27.6l10,10C747.7,147.6,747.7,160,740.1,167.6z"/>
		<g>
			<path fill="#545662" d="M709,171.1l-1.8-1.8c-1.7,0.7-3.5,1.3-5.4,1.8c1.2-1.1,2.3-2.4,3.4-3.8l-3.6-3.6
				c-3.9,5.1-8.4,8.5-13.3,9.4v-21.6c1.2,0,2.4,0,3.6-0.1c-0.7-1.6-1.1-3.3-1.4-5c-0.7,0-1.5,0-2.2,0.1v-30.7h27
				c0,0.6,0,1.2-0.1,1.8c1.7,0,3.3,0.3,5,0.7c0-0.8,0.1-1.6,0.1-2.5h25.4c-0.3,6.6-1.6,13-3.9,18.9l1.9,1.9c0.7,0.7,1.3,1.4,1.9,2.2
				c3.3-7.8,5.2-16.4,5.2-25.4c0-35.8-29.2-65-65-65s-65,29.2-65,65s29.2,65,65,65c9,0,17.6-1.9,25.4-5.2
				C710.4,172.4,709.7,171.8,709,171.1z M739,85.7c3.9,7.6,6.3,16.1,6.7,25.1h-25.4c-0.2-10.4-1.6-20.1-4.1-28.7
				c7.6,1,15.2,2.4,22.7,4.2L739,85.7z M736,80.5c-7.1-1.6-14.3-2.8-21.5-3.7c-3.2-9-7.6-16.4-12.8-21.4
				C716,59.4,728.1,68.4,736,80.5z M688.3,53.5c8.2,1.5,15.6,10.1,20.5,22.7c-6.8-0.7-13.7-1-20.5-1.1V53.5z M688.3,80.1
				c7.5,0.1,15,0.5,22.4,1.3c2.7,8.6,4.4,18.7,4.6,29.3h-27V80.1z M669.7,55.4c-5.2,5-9.6,12.4-12.8,21.4
				c-7.2,0.9-14.4,2.1-21.5,3.7C643.4,68.4,655.5,59.4,669.7,55.4z M632.5,85.7l0.1,0.6c7.5-1.8,15-3.2,22.7-4.2
				c-2.4,8.5-3.9,18.2-4.1,28.7h-25.4C626.2,101.7,628.6,93.2,632.5,85.7z M632.5,140.8c-3.9-7.6-6.3-16.1-6.7-25.1h25.4
				c0.2,10.4,1.6,20.1,4.1,28.7c-7.6-1-15.2-2.4-22.7-4.2L632.5,140.8z M635.5,145.9c7.1,1.6,14.3,2.8,21.5,3.7
				c3.2,9,7.6,16.4,12.8,21.4C655.5,167.1,643.4,158,635.5,145.9z M683.3,173c-8.2-1.5-15.6-10.1-20.5-22.7c6.8,0.7,13.7,1,20.5,1.1
				V173z M683.3,146.4c-7.5-0.1-15-0.5-22.4-1.3c-2.7-8.6-4.4-18.7-4.6-29.3h27V146.4z M683.3,110.7h-27c0.2-10.7,1.9-20.7,4.6-29.3
				c7.4-0.8,14.9-1.3,22.4-1.3V110.7z M683.3,75.1c-6.9,0.1-13.7,0.4-20.5,1.1c5-12.6,12.3-21.2,20.5-22.7V75.1z"/>
		</g>
	</g>
	<g>
		<g>
			<path fill="#545662" d="M452.3,178.3h-62.7c-6.9,0-12.5-5.6-12.5-12.5v-105c0-6.9,5.6-12.5,12.5-12.5h62.7
				c6.9,0,12.5,5.6,12.5,12.5v105C464.8,172.6,459.2,178.3,452.3,178.3z M389.6,53.3c-4.1,0-7.5,3.4-7.5,7.5v105
				c0,4.1,3.4,7.5,7.5,7.5h62.7c4.1,0,7.5-3.4,7.5-7.5v-105c0-4.1-3.4-7.5-7.5-7.5H389.6z"/>
		</g>
		<g>
			<path fill="#545662" d="M449.5,160.5h-57.2c-4.1,0-7.5-3.4-7.5-7.5V73.5c0-4.1,3.4-7.5,7.5-7.5h57.2c4.1,0,7.5,3.4,7.5,7.5V153
				C457,157.1,453.7,160.5,449.5,160.5z M392.3,71c-1.4,0-2.5,1.1-2.5,2.5V153c0,1.4,1.1,2.5,2.5,2.5h57.2c1.4,0,2.5-1.1,2.5-2.5
				V73.5c0-1.4-1.1-2.5-2.5-2.5H392.3z"/>
		</g>
		<g>
			<rect x="412" y="164.6" fill="#545662" width="17.9" height="5"/>
		</g>
		<g>
			<g>
				<path fill="#1C75BC" d="M424.8,128c-2.1-2.1-5.6-2.1-7.7,0l-3.5-3.5c4.1-4.1,10.7-4.1,14.7,0L424.8,128z"/>
			</g>
			<g>
				<path fill="#1C75BC" d="M433,119.8c-6.6-6.6-17.4-6.6-24,0l-3.5-3.5c8.6-8.6,22.5-8.6,31.1,0L433,119.8z"/>
			</g>
			<g>
				<path fill="#1C75BC" d="M400.4,111.3l-3.5-3.5c13.3-13.3,34.8-13.3,48.1,0l-3.5,3.5C430.1,100,411.7,100,400.4,111.3z"/>
			</g>
		</g>
	</g>
	<g>
		<g>
			<g>
				<path fill="#545662" d="M199.8,139.1h-87.5c-6.9,0-12.5-5.6-12.5-12.5V76.6c0-6.9,5.6-12.5,12.5-12.5h87.5
					c6.9,0,12.5,5.6,12.5,12.5v50.1C212.3,133.5,206.7,139.1,199.8,139.1z M112.3,69.1c-4.1,0-7.5,3.4-7.5,7.5v50.1
					c0,4.1,3.4,7.5,7.5,7.5h87.5c4.1,0,7.5-3.4,7.5-7.5V76.6c0-4.1-3.4-7.5-7.5-7.5H112.3z"/>
			</g>
		</g>
		<g>
			<g>
				<path fill="#545662" d="M213.6,162.5h-115c-4.1,0-7.5-3.4-7.5-7.5V151c0-4.1,3.4-7.5,7.5-7.5h115c4.1,0,7.5,3.4,7.5,7.5v3.9
					C221.1,159.1,217.7,162.5,213.6,162.5z M98.6,148.5c-1.4,0-2.5,1.1-2.5,2.5v3.9c0,1.4,1.1,2.5,2.5,2.5h115
					c1.4,0,2.5-1.1,2.5-2.5V151c0-1.4-1.1-2.5-2.5-2.5H98.6z"/>
			</g>
		</g>
		<g>
			<path fill="#1C75BC" d="M176.2,121.9h-40.3c-6,0-10.9-4.9-10.9-10.9c0-4.5,2.7-8.5,6.8-10.1c0.3-5.5,4.6-9.8,10.1-10.3
				c2.5-5.6,8.1-9.3,14.3-9.3s11.8,3.8,14.3,9.3c5.4,0.4,9.8,4.8,10.1,10.3c4,1.7,6.7,5.6,6.7,10.1
				C187.2,117,182.3,121.9,176.2,121.9z M142.7,95.6c-3.3,0-5.9,2.7-5.9,5.9c0,0.2,0,0.5,0.1,0.8c0.2,1.3-0.7,2.5-2,2.8
				c-2.8,0.5-4.8,3-4.8,5.8c0,3.3,2.7,5.9,5.9,5.9h40.3c3.3,0,5.9-2.7,5.9-5.9c0-2.8-2-5.3-4.8-5.8c-1.3-0.3-2.2-1.5-2-2.8
				c0-0.3,0.1-0.6,0.1-0.8c0-3.3-2.7-5.9-5.9-5.9c-0.2,0-0.4,0-0.6,0c-1.2,0.1-2.3-0.6-2.7-1.8c-1.3-4.5-5.5-7.6-10.2-7.6
				s-8.8,3.1-10.2,7.6c-0.3,1.2-1.5,1.9-2.7,1.8C143.1,95.6,142.9,95.6,142.7,95.6z"/>
		</g>
	</g>
	<g>
		<g>
			<path fill="#1C75BC" d="M374.4,527.8h72.4c5.9,0,10.8-4.8,10.8-10.8v-41.4c0-5.9-4.8-10.8-10.8-10.8h-72.4
				c-5.9,0-10.8,4.8-10.8,10.8V517C363.6,523,368.5,527.8,374.4,527.8z M368.6,475.6c0-3.2,2.6-5.8,5.8-5.8h72.4
				c3.2,0,5.8,2.6,5.8,5.8V517c0,3.2-2.6,5.8-5.8,5.8h-72.4c-3.2,0-5.8-2.6-5.8-5.8V475.6z"/>
			<path fill="#1C75BC" d="M457.4,530.5h-93.6c-4.1,0-7.4,3.3-7.4,7.4v1.8c0,4.1,3.3,7.4,7.4,7.4h93.6c4.1,0,7.4-3.3,7.4-7.4v-1.8
				C464.8,533.8,461.5,530.5,457.4,530.5z M459.8,539.7c0,1.3-1.1,2.4-2.4,2.4h-93.6c-1.3,0-2.4-1.1-2.4-2.4v-1.8
				c0-1.3,1.1-2.4,2.4-2.4h93.6c1.3,0,2.4,1.1,2.4,2.4V539.7z"/>
		</g>
		<g>
			<path fill="#545662" d="M439.6,417c-25.3,0-45.8,20.5-45.8,45.8c0,0.7,0,1.3,0.1,2h52.9c1.1,0,2.2,0.2,3.2,0.5h9.3
				c-0.2,5-0.8,9.8-1.8,14.2v15.1c0.9-1.8,1.8-3.8,2.6-5.9c4.2-0.5,8.4-1.2,12.6-2.1c-3.9,5.4-9.1,9.8-15.2,12.8v5.5
				c16.4-7,27.9-23.3,27.9-42.2C485.4,437.6,464.9,417,439.6,417z M415,460.3h-16c0.3-5.5,1.8-10.7,4.1-15.5l0,0
				c4.8-1.1,9.6-2.1,14.5-2.7C416,447.6,415.1,453.8,415,460.3z M406.6,439c4.8-6.7,11.6-11.8,19.5-14.6c-2.7,3.3-5.1,7.5-6.9,12.5
				C414.9,437.4,410.7,438.1,406.6,439z M437.1,460.3H420c0.2-6.8,1.3-13.3,3-18.8c4.7-0.5,9.5-0.8,14.2-0.9V460.3z M437.1,435.6
				c-4.1,0.1-8.2,0.3-12.3,0.6c3.1-7.4,7.5-12.6,12.3-13.9V435.6z M442.1,422.4c4.8,1.3,9.2,6.5,12.3,13.9
				c-4.1-0.4-8.2-0.6-12.3-0.6V422.4z M442.1,460.3v-19.7c4.7,0.1,9.5,0.4,14.2,0.9c1.7,5.6,2.8,12,3,18.8H442.1z M460.1,436.9
				c-1.8-5-4.2-9.3-6.9-12.5c7.9,2.8,14.7,8,19.5,14.6C468.5,438.1,464.3,437.4,460.1,436.9z M476.3,444.9L476.3,444.9
				c2.3,4.7,3.8,9.9,4.1,15.4h-16c-0.2-6.5-1.1-12.7-2.5-18.2C466.6,442.8,471.5,443.7,476.3,444.9z M476.3,480.8L476.3,480.8
				c-4.8,1.1-9.6,2-14.5,2.7c1.5-5.5,2.4-11.6,2.5-18.2h16C480,470.8,478.6,476.1,476.3,480.8z"/>
		</g>
	</g>
	<g>
		<path fill="#1C75BC" d="M213.5,349.9h-0.9c1.6-1.1,2.6-3,2.6-5.1v-19.5c0-3.5-2.8-6.3-6.2-6.3h-33.6c-3.4,0-6.2,2.8-6.2,6.3v19.5
			c0,2.1,1,4,2.6,5.1h-0.9c-2.8,0-5,2.3-5,5.1c0,2.8,2.3,5.1,5,5.1h42.6c2.8,0,5-2.3,5-5.1C218.6,352.2,216.3,349.9,213.5,349.9z
			 M174,325.3c0-0.8,0.7-1.5,1.5-1.5H209c0.8,0,1.5,0.7,1.5,1.5v19.5c0,0.8-0.7,1.5-1.5,1.5h-33.6c-0.8,0-1.5-0.7-1.5-1.5V325.3z
			 M213.5,355.3h-42.6c-0.2,0-0.3-0.1-0.3-0.3s0.1-0.3,0.3-0.3h42.6c0.2,0,0.3,0.1,0.3,0.3S213.7,355.3,213.5,355.3z"/>
		<path fill="#1C75BC" d="M141.2,266.1h-0.9c1.6-1.1,2.6-3,2.6-5.1v-19.5c0-3.5-2.8-6.3-6.2-6.3h-33.6c-3.4,0-6.2,2.8-6.2,6.3v19.5
			c0,2.1,1,4,2.6,5.1h-0.9c-2.8,0-5,2.3-5,5.1c0,2.8,2.3,5.1,5,5.1h42.6c2.8,0,5-2.3,5-5.1C146.2,268.3,144,266.1,141.2,266.1z
			 M101.7,241.4c0-0.8,0.7-1.5,1.5-1.5h33.6c0.8,0,1.5,0.7,1.5,1.5v19.5c0,0.8-0.7,1.5-1.5,1.5h-33.6c-0.8,0-1.5-0.7-1.5-1.5V241.4z
			 M141.2,271.5H98.6c-0.2,0-0.3-0.1-0.3-0.3s0.1-0.3,0.3-0.3h42.6c0.2,0,0.3,0.1,0.3,0.3S141.4,271.5,141.2,271.5z"/>
		<path fill="#545662" d="M156,248.3c-4.5,0-8.9,0.7-13.1,1.8v10.8c0,2.1-1,4-2.6,5.1h0.8c3.3-6.9,7.7-11.5,12.5-12.7v15.1
			c-2.7,0-5.4,0.1-8,0.3c0.4,0.7,0.6,1.5,0.6,2.4c0,0.9-0.2,1.7-0.6,2.4c2.7-0.2,5.3-0.3,8-0.3v22h-19c0.2-6.8,1.1-13.2,2.7-19h-5
			c-1.4,5.8-2.3,12.2-2.5,19h-17.8c0.3-6.3,2-12.2,4.6-17.5l0,0.2c2.5-0.6,5-1.1,7.4-1.6h-12.1c-3.1,6.5-4.8,13.7-4.8,21.4
			c0,27.2,21.8,49.4,48.7,49.4c4.6,0,9.1-0.7,13.3-1.9c0-0.1,0-0.2,0-0.4v-12.5c-3.1,5.2-6.8,8.6-10.9,9.6v-15.1
			c3.6-0.1,7.3-0.2,10.9-0.5v-1.1c0-1.5,0.5-2.8,1.3-3.9c-4.1,0.4-8.1,0.6-12.2,0.6v-22h19c-0.2,6.8-1.2,13.3-2.7,19
			c0.3,0,0.5-0.1,0.8-0.1h4.2c1.4-5.8,2.3-12.2,2.5-19h17.8c-0.3,6.3-2,12.2-4.6,17.5l0-0.2c-2.5,0.6-5,1.1-7.4,1.6h12.1
			c3.1-6.5,4.8-13.7,4.8-21.4C204.7,270.4,182.8,248.3,156,248.3z M116.7,317.6c-2.6-5.3-4.3-11.3-4.6-17.5h17.8
			c0.2,7.4,1.2,14.3,2.8,20.4c-5.4-0.8-10.7-1.8-16-3L116.7,317.6z M119.9,323c4.8,1,9.6,1.8,14.4,2.5c2.1,5.9,4.9,10.9,8.1,14.5
			C133.2,337,125.3,330.9,119.9,323z M153.6,341.9c-5.5-1.3-10.5-7.3-13.9-15.8c4.6,0.4,9.3,0.7,13.9,0.8V341.9z M153.6,322
			c-5.2-0.1-10.5-0.4-15.7-1c-1.9-6.2-3.1-13.4-3.3-21h19V322z M158.4,253.4c5.5,1.3,10.5,7.3,13.9,15.8c-4.6-0.4-9.3-0.7-13.9-0.8
			V253.4z M158.4,295.2v-22c5.2,0.1,10.5,0.4,15.7,1c1.9,6.2,3.1,13.4,3.3,21H158.4z M169.6,255.3c9.2,3,17.1,9.1,22.5,17
			c-4.8-1-9.6-1.8-14.4-2.5C175.6,263.9,172.8,258.9,169.6,255.3z M182.1,295.2c-0.2-7.4-1.2-14.3-2.8-20.4c5.4,0.8,10.7,1.8,16,3
			l0-0.2c2.6,5.3,4.3,11.3,4.6,17.5H182.1z"/>
	</g>
	<g>
		<path fill="#545662" d="M439.9,284.6v-10.6h-5v10.5h-6v-10.5h-5v10.5h-6v-10.5h-5v10.5h-6v-10.5h-5v10.6c-3.7,0.4-6.6,3.6-6.6,7.4
			v15.7c0,6.9,5.6,12.5,12.5,12.5h10.6v40h5v-40h10.6c6.9,0,12.5-5.6,12.5-12.5v-15.7C446.6,288.2,443.7,285,439.9,284.6z
			 M441.6,307.7c0,4.1-3.4,7.5-7.5,7.5h-26.3c-4.1,0-7.5-3.4-7.5-7.5v-15.7c0-1.4,1.1-2.5,2.5-2.5h36.3c1.4,0,2.5,1.1,2.5,2.5V307.7
			z"/>
		<g>
			<path fill="#1C75BC" d="M458.3,265.8C458.3,265.8,458.3,265.8,458.3,265.8c0-8.7-7-15.8-15.6-16C439.2,241,430.6,235,421,235
				c-9.6,0-18.3,6-21.7,14.8c-8.6,0.2-15.6,7.3-15.6,15.9c-6.3,2.2-10.7,8.2-10.7,15.1c0,8.8,7.2,15.9,15.9,15.9h6.4v-4.7
				c0-0.1,0-0.2,0-0.3h-6.4c-6,0-10.9-4.9-10.9-10.9c0-5.2,3.7-9.7,8.9-10.7c1.3-0.3,2.2-1.5,2-2.8c-0.1-0.6-0.1-1.1-0.1-1.5
				c0-6,4.9-10.9,10.9-10.9c0.4,0,0.8,0,1.1,0.1c1.2,0.1,2.3-0.6,2.7-1.8c2.3-7.7,9.5-13.1,17.6-13.1c8.1,0,15.3,5.4,17.6,13.1
				c0.3,1.2,1.5,1.9,2.7,1.8c0.4,0,0.8-0.1,1.1-0.1c6,0,10.9,4.9,10.9,10.9c0,0.5,0,0.9-0.1,1.5c-0.2,1.3,0.7,2.5,2,2.8
				c5.1,1,8.8,5.5,8.8,10.7c0,6-4.9,10.9-10.9,10.9h-6.4c0,0.1,0,0.2,0,0.3v4.7h6.4c8.8,0,15.9-7.2,15.9-15.9
				C468.9,274,464.6,268,458.3,265.8z"/>
		</g>
	</g>
	<g>
		<g>
			<g>
				<path fill="#545662" d="M199.8,507.9h-87.5c-6.9,0-12.5-5.6-12.5-12.5v-50.1c0-6.9,5.6-12.5,12.5-12.5h87.5
					c6.9,0,12.5,5.6,12.5,12.5v50.1C212.3,502.3,206.7,507.9,199.8,507.9z M112.3,437.8c-4.1,0-7.5,3.4-7.5,7.5v50.1
					c0,4.1,3.4,7.5,7.5,7.5h87.5c4.1,0,7.5-3.4,7.5-7.5v-50.1c0-4.1-3.4-7.5-7.5-7.5H112.3z"/>
			</g>
			<g>
				<path fill="#545662" d="M213.6,531.2h-115c-4.1,0-7.5-3.4-7.5-7.5v-3.9c0-4.1,3.4-7.5,7.5-7.5h115c4.1,0,7.5,3.4,7.5,7.5v3.9
					C221.1,527.9,217.7,531.2,213.6,531.2z M98.6,517.3c-1.4,0-2.5,1.1-2.5,2.5v3.9c0,1.4,1.1,2.5,2.5,2.5h115
					c1.4,0,2.5-1.1,2.5-2.5v-3.9c0-1.4-1.1-2.5-2.5-2.5H98.6z"/>
			</g>
		</g>
		<g>
			<g>
				<path fill="#1C75BC" d="M161.4,492.2c-2.9-2.9-7.7-2.9-10.7,0l-4.9-4.9c5.7-5.7,14.9-5.7,20.5,0L161.4,492.2z"/>
			</g>
			<g>
				<path fill="#1C75BC" d="M172.8,480.8c-9.2-9.2-24.2-9.2-33.5,0l-4.9-4.9c11.9-11.9,31.4-11.9,43.3,0L172.8,480.8z"/>
			</g>
			<g>
				<path fill="#1C75BC" d="M127.5,469l-4.9-4.9c18.5-18.5,48.5-18.5,66.9,0l-4.9,4.9C168.9,453.2,143.3,453.2,127.5,469z"/>
			</g>
		</g>
	</g>
	<g>
		<g>
			<path fill="#545662" d="M738.3,314.6h-19.5v-21.7c3-1,5.2-3.9,5.2-7.3c0-4.3-3.5-7.7-7.7-7.7s-7.7,3.5-7.7,7.7
				c0,3.4,2.2,6.3,5.2,7.3v21.7h-80.5c-6.9,0-12.5,5.6-12.5,12.5v14.2c0,6.9,5.6,12.5,12.5,12.5h105c6.9,0,12.5-5.6,12.5-12.5v-14.2
				C750.8,320.2,745.2,314.6,738.3,314.6z M716.3,282.9c1.5,0,2.7,1.2,2.7,2.7s-1.2,2.7-2.7,2.7c-1.5,0-2.7-1.2-2.7-2.7
				S714.7,282.9,716.3,282.9z M745.8,341.3c0,4.1-3.4,7.5-7.5,7.5h-105c-4.1,0-7.5-3.4-7.5-7.5v-14.2c0-4.1,3.4-7.5,7.5-7.5h105
				c4.1,0,7.5,3.4,7.5,7.5V341.3z"/>
			<rect x="635.5" y="331.7" fill="#545662" width="37.5" height="5"/>
			<rect x="716.3" y="331.7" fill="#545662" width="14.7" height="5"/>
		</g>
		<g>
			<g>
				<path fill="#1C75BC" d="M720.1,271.6c-2.1-2.1-5.6-2.1-7.7,0l-3.5-3.5c4.1-4.1,10.7-4.1,14.7,0L720.1,271.6z"/>
			</g>
			<g>
				<path fill="#1C75BC" d="M728.3,263.4c-6.6-6.6-17.4-6.6-24,0l-3.5-3.5c8.6-8.6,22.5-8.6,31.1,0L728.3,263.4z"/>
			</g>
			<g>
				<path fill="#1C75BC" d="M695.8,254.9l-3.5-3.5c13.3-13.3,34.8-13.3,48.1,0l-3.5,3.5C725.5,243.6,707.1,243.6,695.8,254.9z"/>
			</g>
		</g>
	</g>
	<g>
		<g>
			<path fill="#1C75BC" d="M654.9,452.1v59.8c0,5.3,4.3,9.6,9.6,9.6h42.6c5.3,0,9.6-4.3,9.6-9.6v-44c0-2.6-1-5-2.8-6.8l-15.8-15.8
				c-1.8-1.8-4.2-2.8-6.8-2.8h-26.8C659.2,442.5,654.9,446.8,654.9,452.1z M694.6,448.9l15.8,15.8c0.9,0.9,1.4,2,1.4,3.3v44
				c0,2.6-2.1,4.6-4.6,4.6h-42.6c-2.6,0-4.6-2.1-4.6-4.6v-59.8c0-2.6,2.1-4.6,4.6-4.6h26.8C692.6,447.5,693.7,448,694.6,448.9z"/>
			<rect x="671.4" y="462.4" fill="#1C75BC" width="28.8" height="5"/>
			<rect x="671.4" y="479.5" fill="#1C75BC" width="28.8" height="5"/>
			<rect x="671.4" y="496.7" fill="#1C75BC" width="28.8" height="5"/>
		</g>
		<g>
			<path fill="#545662" d="M704.6,431c17.2,6.3,30.3,21.1,34.3,39.2l4.9-1.1c-4.5-20.4-19.6-36.9-39.1-43.4v-3c0-2.5-2.7-4-4.8-2.8
				l-6.6,3.8c-2.1,1.2-2.1,4.3,0,5.5l6.6,3.8C701.8,434.2,704.2,433,704.6,431z"/>
			<path fill="#545662" d="M633,474.8l3.8-6.6c1.1-1.9-0.1-4.3-2.2-4.7c6.3-17.3,21.1-30.5,39.3-34.5l-1.1-4.9
				c-20.5,4.5-37,19.7-43.5,39.3h-3c-2.5,0-4,2.7-2.8,4.8l3.8,6.6C628.7,476.9,631.8,476.9,633,474.8z"/>
			<path fill="#545662" d="M681.7,534.8l-6.6-3.8c-2.1-1.2-4.8,0.3-4.8,2.8v0.4c-18.8-5.6-33.3-21-37.6-40.3l-4.9,1.1
				c4.8,21.5,21.3,38.7,42.5,44.4v2c0,2.5,2.7,4,4.8,2.8l6.6-3.8C683.8,539.1,683.8,536,681.7,534.8z"/>
			<path fill="#545662" d="M747.9,496.1l-3.8-6.6c-1.2-2.1-4.3-2.1-5.5,0l-3.8,6.6c-1.1,1.9,0,4.3,2.1,4.7
				c-6.3,17.2-21.1,30.3-39.2,34.3l1.1,4.9c20.4-4.5,36.9-19.6,43.4-39.1h3C747.6,500.9,749.2,498.2,747.9,496.1z"/>
		</g>
	</g>
</g>
</svg>
